<svg width="40" height="40" fill="none" xmlns="http://www.w3.org/2000/svg"><rect width="40" height="40" rx="5" fill="#FBE423"/><path d="M28.571 17.078c0-.335-.357-.469-.625-.513l-5.602-.815-2.511-5.078c-.1-.212-.29-.458-.547-.458-.257 0-.447.246-.547.458l-2.511 5.078-5.603.815c-.279.044-.625.178-.625.513 0 .201.145.39.279.536l4.063 3.95-.96 5.581c-.011.078-.023.145-.023.223 0 .29.146.558.47.558a.943.943 0 00.446-.134l5.01-2.634 5.012 2.634c.134.078.29.134.446.134.324 0 .458-.267.458-.558 0-.078 0-.145-.011-.223l-.96-5.58 4.051-3.951c.145-.145.29-.335.29-.536z" fill="#fff"/></svg>