<svg width="20" height="21" fill="none" xmlns="http://www.w3.org/2000/svg"><path d="M17.344 2.453c.86.755 1.471 1.953 1.836 3.594.364 1.614.403 3.62.117 6.016a7.569 7.569 0 01-.39 1.64 6.615 6.615 0 01-.548 1.29 5.118 5.118 0 01-.742.937c-.26.286-.52.52-.781.703-.234.156-.495.3-.781.43-.287.13-.521.234-.703.312-.183.052-.391.104-.625.156a3.247 3.247 0 01-.352.078c-.182.078-.495.157-.938.235-.442.078-1.145.156-2.109.234-.963.104-1.927.104-2.89 0-.547.6-.938 1.029-1.172 1.29-.079.077-.183.181-.313.312-.13.156-.221.26-.273.312-.052.052-.144.13-.274.235-.104.13-.182.195-.234.195a.895.895 0 00-.274.078c-.13.052-.22.04-.273-.04a.58.58 0 01-.273-.155.58.58 0 01-.157-.274 3.743 3.743 0 01-.078-.273v-.195l-.039-.079.04-2.03h-.04a7.192 7.192 0 01-1.523-.626 5.44 5.44 0 01-1.172-.937c-.287-.339-.56-.704-.82-1.094a6.52 6.52 0 01-.547-1.25 95.804 95.804 0 01-.313-1.29c-.078-.442-.13-.872-.156-1.288 0-.417-.013-.82-.04-1.211 0-.39.014-.742.04-1.055C.599 5.865 1.25 3.82 2.5 2.57c.781-.703 1.823-1.224 3.125-1.562C6.927.669 8.047.5 8.985.5h1.367c1.354.026 2.578.182 3.671.469 1.12.26 1.889.52 2.305.781.417.234.755.469 1.016.703zm.547 9.258c.26-2.031.234-3.75-.078-5.156-.287-1.433-.795-2.461-1.524-3.086-.182-.183-.469-.378-.86-.586-.39-.209-1.067-.417-2.03-.625-.938-.209-1.98-.326-3.126-.352h-.507c-.209 0-.612.026-1.211.078-.573.026-1.133.092-1.68.196-.52.078-1.094.247-1.719.507-.625.235-1.133.547-1.523.938-1.068 1.042-1.628 2.747-1.68 5.117.026.469.026.977 0 1.524a6.81 6.81 0 00.156 1.718c.13.6.3 1.172.508 1.72.235.52.612 1.015 1.133 1.483.52.443 1.159.769 1.914.977a730.97 730.97 0 00-.039 3.36c0 .182.052.286.156.312.104.052.209.013.313-.117l2.656-3.086c.807.052 1.628.052 2.46 0 .834-.078 1.446-.156 1.837-.235.39-.078.664-.143.82-.195.026 0 .143-.026.352-.078a6.08 6.08 0 00.586-.156c.182-.078.416-.182.703-.313a2.5 2.5 0 00.742-.508c.234-.234.469-.494.703-.78.235-.313.43-.69.586-1.134.156-.468.273-.976.352-1.523zm-5.43-3.164c0 .182-.091.273-.274.273-.156 0-.234-.078-.234-.234-.052-.833-.482-1.276-1.289-1.328a.263.263 0 01-.234-.117.328.328 0 01.039-.274.263.263 0 01.234-.117c1.12.052 1.706.651 1.758 1.797zm.781.469c.026-.86-.221-1.576-.742-2.149-.52-.573-1.263-.898-2.227-.976-.104 0-.169-.04-.195-.118a.487.487 0 010-.273.263.263 0 01.235-.117c1.093.078 1.94.456 2.539 1.133.625.677.924 1.51.898 2.5 0 .104-.04.182-.117.234a.486.486 0 01-.274 0 .263.263 0 01-.117-.234zm1.836.507a.263.263 0 01-.117.235.486.486 0 01-.274 0 .263.263 0 01-.117-.235c0-1.536-.455-2.734-1.367-3.593-.885-.886-2.005-1.328-3.36-1.328-.155 0-.234-.079-.234-.235 0-.182.079-.273.235-.273 1.51 0 2.76.495 3.75 1.484.99.964 1.484 2.279 1.484 3.945zm-.43 3.829c-.26.442-.572.807-.937 1.093-.365.26-.73.326-1.094.196-.443-.13-1.08-.417-1.914-.86a15.903 15.903 0 01-2.07-1.328 10.25 10.25 0 01-1.68-1.68 15.266 15.266 0 01-1.172-1.796c-.26-.443-.482-.847-.664-1.211-.156-.365-.26-.625-.312-.782l-.04-.195c-.13-.365-.064-.73.196-1.094a3.858 3.858 0 011.094-.937c.364-.182.677-.13.937.156.313.39.547.677.703.86.183.26.378.572.586.937.235.443.183.794-.156 1.055l-.469.351a.38.38 0 00-.156.235.737.737 0 00-.04.234v.078c.027.078.053.182.08.313.051.104.155.325.312.664.182.312.377.612.585.898.235.26.547.534.938.82a4.33 4.33 0 001.367.625c.235 0 .417-.078.547-.234l.39-.469c.261-.338.6-.39 1.016-.156.73.417 1.328.846 1.797 1.29.287.26.339.572.156.937z" fill="#B811E2"/></svg>