<svg width="18" height="19" fill="none" xmlns="http://www.w3.org/2000/svg"><path d="M15.133 3.29c1.745 1.744 2.617 3.788 2.617 6.132 0 2.396-.86 4.44-2.578 6.133-1.719 1.692-3.776 2.539-6.172 2.539a8.442 8.442 0 01-4.14-1.055L.25 18.25l1.25-4.492A8.4 8.4 0 01.328 9.422c0-2.396.846-4.44 2.54-6.133C4.56 1.596 6.603.75 9 .75c2.396 0 4.44.846 6.133 2.54zM9 16.647c1.98 0 3.685-.703 5.117-2.109 1.432-1.432 2.149-3.138 2.149-5.117.026-1.927-.703-3.62-2.188-5.078C12.672 2.937 10.98 2.234 9 2.234c-1.98 0-3.685.704-5.117 2.11-1.406 1.406-2.11 3.099-2.11 5.078a6.93 6.93 0 001.133 3.828l.156.273-.742 2.657 2.735-.703.273.156A6.965 6.965 0 009 16.648zm3.945-5.43c.26.131.404.222.43.274.078.156.026.508-.156 1.055-.078.208-.287.43-.625.664-.313.208-.586.325-.82.351-.678.105-1.55-.078-2.618-.546-1.276-.547-2.5-1.641-3.672-3.282-.599-.807-.898-1.55-.898-2.226 0-.651.247-1.263.742-1.836a.886.886 0 01.586-.234h.43c.234 0 .39.117.468.351l.665 1.602c.078.156.09.286.039.39a2.536 2.536 0 01-.391.625l-.273.274c-.026.026-.013.117.039.273.364.677.755 1.185 1.171 1.524.443.338 1.03.69 1.758 1.054.209.104.365.091.47-.039.338-.39.572-.677.702-.86.104-.155.26-.194.469-.116.208.078.703.312 1.484.703z" fill="#54ED47"/></svg>